<svg xmlns="http://www.w3.org/2000/svg" viewBox="0 0 995 512" role="img" aria-label="APSEN" focusable="false">
  <path fill="#004080" fill-rule="evenodd" d="M 477.412 18.750 C 467.585 29.063, 451.659 45.516, 442.022 55.313 L 424.500 73.125 424.546 150.990 L 424.591 228.856 435.546 240.215 C 492.324 299.094, 531.221 350.188, 553 394.500 C 564.454 417.804, 569.821 435.195, 572.036 456.187 L 573.163 466.874 572.091 475.690 C 570.591 488.026, 568.584 495.275, 564.183 504.250 L 560.383 512 777.192 512 C 896.436 512, 994 511.724, 994 511.387 C 994 511.049, 983.492 500.137, 970.649 487.137 C 957.806 474.136, 939.678 455.625, 930.365 446 C 921.051 436.375, 901.522 416.226, 886.966 401.224 C 872.410 386.222, 851.500 364.622, 840.500 353.224 L 820.500 332.500 817.262 319 C 815.481 311.575, 811.298 295.375, 807.966 283 C 804.634 270.625, 800.621 255.683, 799.049 249.794 L 796.190 239.089 805.345 231.320 C 853.135 190.763, 871 175.196, 871 174.108 C 871 173.734, 870.212 173.401, 869.250 173.367 C 868.288 173.333, 849.275 172.772, 827 172.120 C 804.725 171.468, 783.764 170.697, 780.419 170.406 L 774.338 169.877 769.722 158.189 C 758.857 130.682, 742.162 88.133, 740.514 83.750 C 739.532 81.137, 738.395 79, 737.987 79 C 736.889 79, 734.375 85.213, 718.039 128.301 C 709.865 149.860, 702.891 168.218, 702.541 169.096 L 701.904 170.692 682.860 171.376 L 663.816 172.059 641.673 149.280 C 629.495 136.751, 614.349 121.102, 608.015 114.504 C 601.682 107.906, 578.952 84.506, 557.504 62.504 C 536.056 40.502, 513.581 17.438, 507.559 11.250 C 501.538 5.063, 496.311 -0, 495.945 -0 C 495.579 -0, 487.239 8.438, 477.412 18.750 M 311.436 190.250 C 276.323 226.688, 242.602 261.675, 236.499 268 C 230.397 274.325, 212.397 293, 196.499 309.500 C 180.601 326, 161.911 345.350, 154.965 352.500 C 148.019 359.650, 135.887 372.250, 128.003 380.500 C 108.684 400.719, 49.493 462.449, 23.819 489.155 C 12.368 501.066, 3 511.078, 3 511.405 C 3 511.732, 57.456 512, 124.014 512 L 245.029 512 242.129 506.250 C 240.534 503.087, 238.249 497.350, 237.051 493.500 L 234.872 486.500 234.169 475.701 C 231.811 439.478, 241.513 406.055, 266.452 364.491 C 288.538 327.682, 309.790 301.025, 366.883 238.519 L 376 228.538 376 176.269 C 376 147.521, 375.837 124, 375.638 124 C 375.439 124, 346.548 153.813, 311.436 190.250 M 729.675 147.224 C 725.455 158.376, 720.253 172, 718.115 177.500 L 714.227 187.500 682.607 188.090 C 665.215 188.415, 650.795 188.871, 650.563 189.104 C 650.131 189.536, 665.648 203.210, 687.757 221.883 L 700.051 232.265 699.517 233.945 C 699.224 234.869, 698.386 237.847, 697.654 240.563 C 696.923 243.278, 693.263 256.648, 689.520 270.274 C 685.777 283.900, 682.948 295.282, 683.234 295.567 C 683.687 296.020, 716.033 274.403, 732.213 262.834 L 737.925 258.749 748.213 265.812 C 772.676 282.606, 793.165 296.168, 793.528 295.806 C 793.743 295.590, 792.779 291.834, 791.386 287.457 C 785.192 267.997, 775.219 232.604, 775.648 231.602 C 776.161 230.406, 814.012 199.709, 822.014 194 C 824.713 192.075, 826.938 190.234, 826.960 189.909 C 827.003 189.275, 791.615 188, 773.961 188 L 763.245 188 762.257 186.750 C 761.713 186.063, 756.222 172.675, 750.054 157 C 743.887 141.325, 738.504 128.151, 738.094 127.724 C 737.683 127.297, 733.895 136.072, 729.675 147.224 M 396.741 317.684 C 396.452 318.683, 393.521 327.150, 390.229 336.500 L 384.242 353.500 398.488 353.500 L 412.733 353.500 411.480 350 C 408.058 340.441, 398.790 317.401, 398.078 316.684 C 397.632 316.235, 397.031 316.685, 396.741 317.684 M 443.916 341.153 C 438.187 345.089, 431.096 350.085, 428.157 352.255 L 422.813 356.201 428.657 359.708 C 431.871 361.638, 436.822 365.192, 439.659 367.608 C 445.749 372.792, 445.645 372.766, 446.233 369.250 C 446.486 367.738, 448.588 359.364, 450.904 350.641 C 453.221 341.919, 454.939 334.606, 454.724 334.390 C 454.508 334.174, 449.644 337.218, 443.916 341.153 M 343.494 338.099 C 344.468 342.697, 352.113 370.308, 352.675 371.255 C 352.922 371.670, 355.683 369.923, 358.812 367.374 C 361.940 364.824, 366.863 361.404, 369.750 359.774 C 372.637 358.143, 375 356.657, 375 356.471 C 375 356.074, 352.284 340.535, 346.637 337.069 L 342.775 334.698 343.494 338.099 M 388.059 362.556 C 370.836 366.290, 357.587 378.289, 351.434 395.724 L 349.042 402.500 349.021 411.568 L 349 420.637 350.595 426.068 C 361.645 463.688, 406.204 476.269, 433.586 449.500 L 439.724 443.500 442.776 437.448 C 444.455 434.119, 446.591 428.773, 447.523 425.568 L 449.217 419.741 449.150 411.609 L 449.082 403.477 447.056 396.916 C 439.310 371.839, 413.791 356.976, 388.059 362.556 M 327.830 382.403 C 318.112 383.006, 309.943 383.725, 309.677 384 C 309.411 384.275, 315.680 389.408, 323.608 395.406 C 331.535 401.404, 338.180 406.129, 338.373 405.906 C 338.567 405.683, 339.707 402.419, 340.907 398.652 C 342.108 394.886, 344.143 389.622, 345.430 386.954 C 347.536 382.588, 347.746 380.718, 346.083 381.153 C 345.762 381.236, 337.549 381.799, 327.830 382.403 M 451 381.454 C 451 381.845, 452.316 385.165, 453.924 388.832 C 455.533 392.500, 457.386 397.637, 458.043 400.250 C 458.700 402.863, 459.482 405, 459.781 405 C 460.473 405, 486.909 384.956, 487.519 383.969 C 487.769 383.565, 484.267 382.963, 479.737 382.632 C 459.248 381.133, 451 380.795, 451 381.454 M 458.109 423.929 C 457.539 426.586, 455.751 432.076, 454.136 436.130 L 451.200 443.500 452.203 443.868 C 452.755 444.070, 461.595 443.904, 471.849 443.500 L 490.491 442.764 486.864 439.632 C 484.870 437.909, 477.817 432.584, 471.191 427.799 L 459.145 419.097 458.109 423.929 M 328.963 427.170 C 316.678 436.386, 309.804 442.137, 310.383 442.716 C 310.992 443.326, 347.164 445.169, 347.715 444.619 C 347.948 444.385, 347.136 442.238, 345.910 439.847 C 344.684 437.456, 342.499 432.028, 341.054 427.785 L 338.426 420.071 328.963 427.170 M 440 457.091 C 437.525 459.295, 432.913 462.714, 429.750 464.691 C 426.587 466.667, 424 468.610, 424 469.008 C 424 469.407, 427.038 471.713, 430.750 474.133 C 434.462 476.553, 441.662 481.413, 446.749 484.934 C 451.836 488.454, 456.176 491.147, 456.394 490.917 C 456.949 490.331, 445.799 452.991, 445.085 453.043 C 444.763 453.066, 442.475 454.888, 440 457.091 M 352.009 462.250 C 346.613 481.561, 344.298 491, 344.959 491 C 345.348 491, 352.947 486.110, 361.846 480.134 L 378.027 469.267 376.764 468.377 C 376.069 467.888, 373.341 466.365, 370.702 464.994 C 368.063 463.622, 363.716 460.587, 361.041 458.250 C 358.366 455.913, 355.758 454, 355.246 454 C 354.733 454, 353.276 457.712, 352.009 462.250 M 387.317 473.500 C 390.835 484.018, 400.626 507.958, 401.315 507.728 C 402.040 507.487, 411.768 482.607, 414.488 474.038 L 415.027 472.340 401.005 472.420 L 386.982 472.500 387.317 473.500"/>
</svg>
